<?xml version="1.0" encoding="iso-8859-1"?>
<!-- Generator: Adobe Illustrator 19.0.0, SVG Export Plug-In . SVG Version: 6.00 Build 0)  -->
<svg version="1.1" id="Capa_1" xmlns="http://www.w3.org/2000/svg" xmlns:xlink="http://www.w3.org/1999/xlink" x="0px" y="0px"
	 viewBox="0 0 512 512" style="enable-background:new 0 0 512 512;" xml:space="preserve">
<g>
	<g>
		<path d="M256,0C114.848,0,0,114.848,0,256s114.848,256,256,256s256-114.848,256-256S397.152,0,256,0z M256,480
			C132.48,480,32,379.488,32,256C32,132.48,132.48,32,256,32c123.488,0,224,100.48,224,224C480,379.488,379.488,480,256,480z"/>
	</g>
</g>
<g>
	<g>
		<path d="M320,176H192c-8.832,0-16,7.168-16,16v128c0,8.832,7.168,16,16,16h128c8.832,0,16-7.168,16-16V192
			C336,183.168,328.832,176,320,176z M304,304h-96v-96h96V304z"/>
	</g>
</g>
<g>
	<g>
		<path d="M192,240H16c-8.832,0-16,7.168-16,16c0,8.832,7.168,16,16,16h176c8.832,0,16-7.168,16-16C208,247.168,200.832,240,192,240
			z"/>
	</g>
</g>
<g>
</g>
<g>
</g>
<g>
</g>
<g>
</g>
<g>
</g>
<g>
</g>
<g>
</g>
<g>
</g>
<g>
</g>
<g>
</g>
<g>
</g>
<g>
</g>
<g>
</g>
<g>
</g>
<g>
</g>
</svg>
